<?xml version="1.0" encoding="UTF-8"?>
<svg version="1.1" xmlns="http://www.w3.org/2000/svg" width="612" height="607">
<path d="M0 0 C201.96 0 403.92 0 612 0 C612 200.31 612 400.62 612 607 C410.04 607 208.08 607 0 607 C0 406.69 0 206.38 0 0 Z " fill="#FEFEFE" transform="translate(0,0)"/>
<path d="M0 0 C1.62615234 0.73863281 1.62615234 0.73863281 3.28515625 1.4921875 C11.63907849 5.43734773 18.83770935 10.10457692 26 16 C27.29550781 17.06541016 27.29550781 17.06541016 28.6171875 18.15234375 C48.96006591 35.6751035 61.56619002 60.45863403 65 87 C65.24609713 90.86407021 65.26297161 94.70847341 65.24050903 98.57940674 C65.24221788 99.67996832 65.24392673 100.78052989 65.24568737 101.91444182 C65.24895654 105.56705293 65.23802117 109.2194764 65.22705078 112.87207031 C65.22648611 115.50435293 65.22671646 118.13662438 65.22793579 120.76890564 C65.22897999 126.41798053 65.22275232 132.06700889 65.21146011 137.71607208 C65.19514459 145.88346969 65.18999094 154.05084502 65.18748413 162.21825716 C65.18311648 175.47217765 65.16983273 188.7260734 65.15087891 201.97998047 C65.13249596 214.84814328 65.1183513 227.71629935 65.10986328 240.58447266 C65.10933783 241.37884779 65.10881239 242.17322293 65.10827102 242.99167004 C65.10566077 246.97716941 65.1031334 250.96266883 65.10064721 254.94816828 C65.0799437 287.96546352 65.04474364 320.98272844 65 354 C63.88632765 353.05378263 62.77384811 352.10616123 61.66186523 351.15795898 C61.04222397 350.63040512 60.4225827 350.10285126 59.78416443 349.55931091 C57.42870362 347.50070259 55.24474342 345.30283975 53.0625 343.0625 C49.45647117 339.41276172 45.75958806 335.97864549 41.86328125 332.64453125 C39.38506948 330.45726258 37.09635833 328.10720121 34.78125 325.75 C32.91610326 323.91757513 30.98072254 322.20646865 29 320.5 C25.80404653 317.74656316 22.82769937 314.85322821 19.87475586 311.84350586 C18.06776312 310.06663359 16.20655066 308.40563127 14.28515625 306.75390625 C10.06707083 303.08596377 5.99310202 299.28336238 1.9375 295.4375 C0.44164222 294.02448973 -1.05445617 292.61173415 -2.55078125 291.19921875 C-3.29537598 290.49587402 -4.0399707 289.7925293 -4.80712891 289.06787109 C-13.18261042 281.16981627 -21.62007016 273.33800306 -30.08691406 265.53808594 C-34.88255451 261.11696775 -39.64892525 256.66488212 -44.4140625 252.2109375 C-48.42969951 248.45970457 -52.45830753 244.72313543 -56.5 241 C-61.8264067 236.09340861 -67.12343075 231.15605861 -72.4140625 226.2109375 C-76.42969951 222.45970457 -80.45830753 218.72313543 -84.5 215 C-89.8264067 210.09340861 -95.12343075 205.15605861 -100.4140625 200.2109375 C-104.95269252 195.97114732 -109.51052514 191.75286779 -114.0793457 187.5456543 C-116.99353033 184.85964868 -119.89847902 182.16426059 -122.79296875 179.45703125 C-123.43540527 178.85624756 -124.0778418 178.25546387 -124.73974609 177.63647461 C-126.03181343 176.42651785 -127.32251901 175.21510518 -128.61181641 174.00219727 C-132.12162647 170.71020914 -135.70131699 167.54731539 -139.375 164.4375 C-154.14382174 151.13821276 -164.06432746 128.77408177 -165.4453125 109.04296875 C-166.38474329 84.34456635 -158.03022949 62.52506826 -141.29296875 44.4140625 C-136.04995055 38.89415577 -130.69507051 33.65827472 -124.9140625 28.703125 C-123.11510489 27.10241986 -121.46882605 25.43357771 -119.8125 23.6875 C-89.69168071 -6.77482518 -39.52498595 -19.09847321 0 0 Z " fill="#352315" transform="translate(523,30)"/>
<path d="M0 0 C2.48459432 2.21875295 4.88284701 4.49121989 7.23095703 6.85351562 C9.29375314 8.92845604 11.38148079 10.9770289 13.46875 13.02734375 C19.99716506 19.47569209 26.48610762 25.8931935 32.46606445 32.86010742 C33.89493539 34.51543043 35.36392681 36.12443151 36.84765625 37.73046875 C45.19877183 47.59996898 50.73557427 58.48194707 54.97265625 70.60546875 C55.28976562 71.51167969 55.606875 72.41789062 55.93359375 73.3515625 C64.49425343 99.83875211 59.82699097 127.04912961 47.97265625 151.60546875 C34.46208521 177.57656644 11.6259086 193.76631703 -15.52734375 202.91796875 C-31.47203984 207.35791855 -47.76424571 206.88247421 -64.16992188 206.83251953 C-66.7830861 206.83195448 -69.39625063 206.83227381 -72.00941467 206.83340454 C-77.60494418 206.83444625 -83.20042656 206.82824505 -88.79594421 206.81692886 C-96.88581965 206.80057894 -104.97567262 206.79545622 -113.06556278 206.79295288 C-126.19525134 206.78859056 -139.32491486 206.77532143 -152.45458984 206.75634766 C-165.19840369 206.7379508 -177.94221069 206.72381299 -190.68603516 206.71533203 C-191.47338541 206.71480658 -192.26073566 206.71428114 -193.07194501 206.71373977 C-197.0223937 206.71112943 -200.97284244 206.70860208 -204.92329121 206.70611596 C-237.62466028 206.68542907 -270.32599864 206.65024373 -303.02734375 206.60546875 C-301.8506311 205.43552368 -301.8506311 205.43552368 -300.65014648 204.24194336 C-298.36709825 201.94699429 -296.22066919 199.60259504 -294.08984375 197.16796875 C-289.63559751 192.17652699 -284.94493705 187.45809869 -280.16430664 182.77954102 C-277.18101697 179.84061888 -274.33141469 176.84941923 -271.59765625 173.67578125 C-267.31964805 168.72110676 -262.65856435 164.18628283 -257.98828125 159.60546875 C-254.71033741 156.36549338 -251.53598814 153.09849806 -248.52734375 149.60546875 C-244.27701563 144.67084744 -239.63476037 140.16293486 -234.98828125 135.60546875 C-231.71033741 132.36549338 -228.53598814 129.09849806 -225.52734375 125.60546875 C-221.27701563 120.67084744 -216.63476037 116.16293486 -211.98828125 111.60546875 C-208.73104397 108.38596009 -205.57563569 105.14221974 -202.58984375 101.66796875 C-197.9264763 96.25380972 -192.79107801 91.32283163 -187.69921875 86.31640625 C-183.55083105 82.21034904 -179.60434398 78.02736706 -175.80078125 73.6015625 C-171.8702031 69.17749767 -167.56397275 65.10566431 -163.34375 60.9609375 C-159.95852665 57.61244352 -156.66289117 54.24886206 -153.55859375 50.63671875 C-148.90788176 45.23126264 -143.78044879 40.31238075 -138.69921875 35.31640625 C-134.56747014 31.22681834 -130.62480215 27.06455848 -126.83251953 22.65966797 C-116.55507284 10.9644507 -105.7966935 0.04935157 -92.02734375 -7.39453125 C-90.93099609 -8.02488281 -90.93099609 -8.02488281 -89.8125 -8.66796875 C-62.23233096 -23.67067829 -24.30421969 -19.22385377 0 0 Z " fill="#445737" transform="translate(528.02734375,379.39453125)"/>
<path d="M0 0 C1.11812749 0.95089561 2.23519044 1.90304306 3.35180664 2.85571289 C3.97398575 3.3858046 4.59616486 3.9158963 5.23719788 4.46205139 C7.4098727 6.35759156 9.4296735 8.36894529 11.4375 10.4375 C14.08538067 13.12086316 16.74439152 15.69429132 19.625 18.125 C24.47590137 22.27456623 28.90350173 26.85196507 33.36962891 31.40673828 C36.47429772 34.55403788 39.61829149 37.58290585 42.96875 40.46875 C47.91227222 44.73139913 52.4321549 49.38200168 57 54.0390625 C60.87539047 57.95986771 64.85496085 61.65675095 69.03125 65.25390625 C72.99672457 68.77090453 76.64859394 72.60961697 80.35546875 76.39453125 C83.46624598 79.54443775 86.61359379 82.5788596 89.96875 85.46875 C94.91227222 89.73139913 99.4321549 94.38200168 104 99.0390625 C107.23997537 102.31700634 110.50697069 105.49135561 114 108.5 C118.93462131 112.75032812 123.44253389 117.39258338 128 122.0390625 C131.22974198 125.30665302 134.48511625 128.47152333 137.96875 131.46875 C143.14314977 135.92560605 147.86250569 140.8144639 152.64453125 145.68359375 C156.00328124 149.07918561 159.37852424 152.38417769 163 155.5 C168.16560744 159.94435252 172.87292293 164.82507088 177.64453125 169.68359375 C181.68911624 173.77254348 185.8212006 177.66868117 190.17822266 181.42285156 C207.04993077 196.02902075 220.13685651 215.42206848 223 238 C224.50940147 264.50497127 218.78977288 287.56490927 200.92480469 307.74536133 C196.89181323 312.1812373 192.68129988 316.31807179 188.08203125 320.16796875 C185.48710947 322.45130517 183.10396108 324.90385239 180.6875 327.375 C167.64882966 340.54603124 153.50757527 349.9488845 136 356 C134.60289378 356.55933099 133.20687121 357.12138529 131.8125 357.6875 C122.38675933 361.1136155 112.88276716 361.40193005 102.9375 361.375 C101.91061066 361.37518127 101.91061066 361.37518127 100.86297607 361.37536621 C86.65216474 361.33964291 73.70667478 359.72088583 61 353 C59.83855469 352.4225 58.67710938 351.845 57.48046875 351.25 C49.57519433 347.25546204 42.68752828 342.86604989 36 337 C34.88238281 336.09701172 34.88238281 336.09701172 33.7421875 335.17578125 C19.72533681 323.52763181 11.24681292 307.81263893 5 291 C4.51853516 289.72576172 4.51853516 289.72576172 4.02734375 288.42578125 C0.63475208 278.92993422 -0.29763959 269.41538883 -0.24050903 259.38899231 C-0.24221788 258.27295095 -0.24392673 257.15690958 -0.24568737 256.00704879 C-0.24896148 252.29605479 -0.23801288 248.5852447 -0.22705078 244.87426758 C-0.22648622 242.20272416 -0.22671621 239.53119174 -0.22793579 236.85964966 C-0.22898069 231.12270545 -0.22274558 225.38580699 -0.21146011 219.64887428 C-0.19515424 211.35440435 -0.18999192 203.05995636 -0.18748413 194.76547214 C-0.18311498 181.30579378 -0.16982712 167.84613976 -0.15087891 154.38647461 C-0.13249986 141.31746543 -0.11835328 128.24846287 -0.10986328 115.17944336 C-0.10933783 114.37285752 -0.10881239 113.56627167 -0.10827102 112.73524383 C-0.1056608 108.68853754 -0.10313342 104.64183121 -0.10064721 100.59512484 C-0.07993902 67.06339891 -0.04473483 33.53170245 0 0 Z " fill="#352315" transform="translate(24,224)"/>
<path d="M0 0 C2.68229274 0.00113021 5.36454179 0.00066665 8.04682922 -0.00177002 C13.78863629 -0.00385278 19.53025951 0.00854224 25.27202034 0.03118134 C33.57329087 0.06389072 41.87447383 0.07412755 50.17580181 0.0791333 C63.64882693 0.08785651 77.12175438 0.1143907 90.59472656 0.15234375 C103.67121904 0.18914129 116.74768485 0.21741499 129.82421875 0.234375 C130.63221525 0.23542589 131.44021175 0.23647679 132.27269299 0.23755953 C136.32675942 0.24278022 140.38082603 0.24783493 144.43489277 0.25280714 C177.99043875 0.29417641 211.54586652 0.364543 245.10131836 0.45410156 C243.71172879 3.34654491 242.40093767 5.38786416 240.08959961 7.62597656 C239.49598633 8.20863281 238.90237305 8.79128906 238.29077148 9.39160156 C237.36167969 10.28878906 237.36167969 10.28878906 236.41381836 11.20410156 C232.69159791 14.81837362 229.0602387 18.44023199 225.67553711 22.37597656 C221.20290887 27.56530382 216.30228949 32.30144834 211.41772461 37.09863281 C208.03250126 40.44712679 204.73686578 43.81070825 201.63256836 47.42285156 C196.98185637 52.82830767 191.8544234 57.74718956 186.77319336 62.74316406 C182.62480566 66.84922128 178.67831859 71.03220325 174.87475586 75.45800781 C170.94417771 79.88207264 166.63794736 83.953906 162.41772461 88.09863281 C158.38309346 92.08948858 154.56160098 96.17062165 150.86108398 100.47167969 C147.13739927 104.66650764 143.06476297 108.52827083 139.06225586 112.45410156 C135.78431202 115.69407694 132.60996275 118.96107225 129.60131836 122.45410156 C125.35099024 127.38872287 120.70873498 131.89663545 116.06225586 136.45410156 C112.78431202 139.69407694 109.60996275 142.96107225 106.60131836 146.45410156 C102.35099024 151.38872287 97.70873498 155.89663545 93.06225586 160.45410156 C89.78431202 163.69407694 86.60996275 166.96107225 83.60131836 170.45410156 C79.35099024 175.38872287 74.70873498 179.89663545 70.06225586 184.45410156 C66.07836313 188.39184882 62.31187465 192.43746695 58.65161133 196.67724609 C44.40233575 213.00893548 23.43549207 221.87138339 2.10131836 223.45410156 C-21.46033274 224.98560888 -42.59884023 217.05340688 -60.46118164 201.64160156 C-66.62916396 195.96589952 -72.27296503 189.78047181 -77.96899414 183.63769531 C-80.60716532 180.79674032 -83.30960135 178.04660794 -86.07836914 175.33300781 C-104.94145779 156.57795781 -115.01762513 129.79329256 -115.46118164 103.51660156 C-115.41950224 75.97277037 -104.69393852 50.68956609 -86.04321289 30.56738281 C-61.40144398 6.2846925 -33.34360124 -0.19800384 0 0 Z " fill="#445737" transform="translate(138.898681640625,21.5458984375)"/>
<path d="M0 0 C1.1446875 -0.01546875 1.1446875 -0.01546875 2.3125 -0.03125 C10.5190129 1.59096767 15.80397161 6.7245109 21.47973633 12.4621582 C22.28563202 13.26104462 23.09152771 14.05993103 23.92184448 14.88302612 C26.56868821 17.51234182 29.20072088 20.15592726 31.83203125 22.80078125 C33.67370677 24.63976067 35.51597559 26.47814608 37.35881042 28.31596375 C41.21314099 32.16303711 45.05900637 36.01842172 48.90014648 39.87866211 C53.33139574 44.33169189 57.77689144 48.77010813 62.23002988 53.20123988 C66.52774893 57.47857443 70.81407913 61.76711922 75.09576988 66.06050682 C76.91288475 67.88028671 78.73296658 69.69710902 80.55607033 71.51088905 C83.10293921 74.04758337 85.63660687 76.59677667 88.16723633 79.1496582 C88.91999344 79.89431839 89.67275055 80.63897858 90.44831848 81.40620422 C95.44775773 86.48725745 99.42333634 91.44492439 99.4375 98.9375 C99.45683594 99.61683594 99.47617187 100.29617188 99.49609375 100.99609375 C97.89060185 109.09940329 92.6973918 114.3812266 87.0378418 119.97973633 C86.23895538 120.78563202 85.44006897 121.59152771 84.61697388 122.42184448 C81.98765818 125.06868821 79.34407274 127.70072088 76.69921875 130.33203125 C74.86023933 132.17370677 73.02185392 134.01597559 71.18403625 135.85881042 C67.33696289 139.71314099 63.48157828 143.55900637 59.62133789 147.40014648 C55.16830811 151.83139574 50.72989187 156.27689144 46.29876012 160.73002988 C42.02142557 165.02774893 37.73288078 169.31407913 33.43949318 173.59576988 C31.61971329 175.41288475 29.80289098 177.23296658 27.98911095 179.05607033 C25.45241663 181.60293921 22.90322333 184.13660687 20.3503418 186.66723633 C19.60568161 187.41999344 18.86102142 188.17275055 18.09379578 188.94831848 C12.81713541 194.14022294 7.85485385 197.89589422 0.125 198 C-1.01582031 198.04640625 -1.01582031 198.04640625 -2.1796875 198.09375 C-10.46146995 196.35021685 -16.53371704 190.54969731 -22.30200195 184.71557617 C-23.07717667 183.94741074 -23.85235138 183.1792453 -24.65101624 182.38780212 C-27.19020483 179.86610391 -29.71461401 177.33019321 -32.23828125 174.79296875 C-34.00887171 173.02507546 -35.78005537 171.2577761 -37.55180359 169.49104309 C-41.7268626 165.32261811 -45.89154067 161.14401542 -50.05261153 156.96163207 C-53.36404144 153.635175 -56.68553327 150.31901696 -60.01293945 147.00854492 C-64.61676922 142.42793941 -69.21066318 137.83762655 -73.79637718 133.23888588 C-75.54009914 131.49250261 -77.28677801 129.74906644 -79.0364933 128.00868797 C-81.48248154 125.5728964 -83.9152185 123.12458107 -86.3449707 120.67260742 C-87.06450928 119.96116577 -87.78404785 119.24972412 -88.52539062 118.51672363 C-93.41680402 113.54242312 -97.24253614 108.64377287 -98.53125 101.59375 C-98.5209375 100.7378125 -98.510625 99.881875 -98.5 99 C-98.5103125 98.1440625 -98.520625 97.288125 -98.53125 96.40625 C-97.02693974 88.17678797 -91.97166209 82.89052042 -86.23730469 77.21972656 C-85.45953171 76.43494431 -84.68175873 75.65016205 -83.88041687 74.84159851 C-81.32083516 72.26449136 -78.74699369 69.70220024 -76.171875 67.140625 C-74.38013186 65.34618543 -72.58898271 63.55115258 -70.79840088 61.7555542 C-67.04898647 58.00025205 -63.29265281 54.25206631 -59.53076172 50.50927734 C-55.19477351 46.19505417 -50.87338282 41.86661073 -46.55929065 37.53050065 C-42.39197163 33.3427742 -38.21338358 29.16643297 -34.03000641 24.99474335 C-32.25850303 23.22590194 -30.48994866 21.45410186 -28.72444916 19.67926788 C-26.25262739 17.19725013 -23.7682774 14.72847769 -21.28027344 12.26269531 C-20.55791 11.53223495 -19.83554657 10.8017746 -19.09129333 10.04917908 C-13.77731179 4.82247359 -7.87337831 -0.106397 0 0 Z " fill="#825534" transform="translate(299,206.5)"/>
</svg>
