<svg xmlns="http://www.w3.org/2000/svg" width="30" height="30" viewBox="0 0 16 16"><g fill="none"><g clip-path="url(#IconifyId198323188fc13f1e11)"><path fill="#445737" fill-rule="evenodd" d="M11.891 3.58a.75.75 0 0 0-1.06 1.061L14.188 8l-3.353 3.354a.75.75 0 1 0 1.06 1.06L15.78 8.53a.75.75 0 0 0 0-1.06zM4.11 12.42a.75.75 0 0 0 1.06-1.061L1.811 8l3.353-3.354a.75.75 0 1 0-1.06-1.06L.22 7.47a.75.75 0 0 0 0 1.06z" clip-rule="evenodd"/></g><defs><clipPath id="IconifyId198323188fc13f1e11"><path fill="#445737" d="M0 0h16v16H0z"/></clipPath></defs></g></svg>